# xmcd
#
# Track frame offsets:
#	150
#	10555
#	28939
#	44015
#	54775
#	73303
#	76828
#	98694
#	132342
#
# Disc length: 2166 seconds
#
# Revision: 0
# Processed by: cddbd v1.5.2PL0 Copyright (c) Steve Scherf et al.
# Submitted via: EasyCDDAExtractor 16.0.8.2
#
DISCID=6e087409
DTITLE=Δαιμονία Νύμφη
DYEAR=2002
DGENRE=Παγανιστική
TTITLE0=Άνευ ερμηνευτού - Message horn's enchanting echo
TTITLE1=Δαιμονία Νύμφη - Ida's dactyls
TTITLE2=Δαιμονία Νύμφη - Summoning divine Selene
TTITLE3=Άνευ ερμηνευτού - Hades
TTITLE4=Δαιμονία Νύμφη - Dance of the satyrs
TTITLE5=Άνευ ερμηνευτού - Korai rejoicing in antron
TTITLE6=Δαιμονία Νύμφη - Nymphs of the seagod Nereus
TTITLE7=Δαιμονία Νύμφη - Hymn to Bacchus
TTITLE8=Δαιμονία Νύμφη - Invoking Pan
EXTD=
EXTT0=
EXTT1=
EXTT2=
EXTT3=
EXTT4=
EXTT5=
EXTT6=
EXTT7=
EXTT8=
PLAYORDER=
